<mxfile host="65bd71144e">
    <diagram id="oMEotIGAXDUPFLw5_vmQ" name="Page-1">
        <mxGraphModel dx="1100" dy="559" grid="1" gridSize="10" guides="1" tooltips="1" connect="1" arrows="0" fold="1" page="1" pageScale="1" pageWidth="827" pageHeight="1169" math="0" shadow="0">
            <root>
                <mxCell id="0"/>
                <mxCell id="1" parent="0"/>
                <mxCell id="2" value="" style="shape=image;imageAspect=0;aspect=fixed;verticalLabelPosition=bottom;verticalAlign=top;image=data:image/png,iVBORw0KGgoAAAANSUhEUgAAApUAAAEHCAIAAABwdSolAAAAAXNSR0IArs4c6QAAAARnQU1BAACxjwv8YQUAAAAJcEhZcwAADsMAAA7DAcdvqGQAAG41SURBVHhe7d0FQBRb3wbwmdmgu1OQNBBEMVAMVARbr93dXder1+7Wa7fY3YmiGCgmCgIi3d27y+bMO7s7wJKCr8HC//f5vZc5Mzs7uyz7zDlzzhmUIAikHouNjV25cqW3tze1DIDcunXr1s6dO8kfrl69qq2tLS0EANRVGPVfAICc8/Pzk/7w/Plz6Q8AgDoM8huAuiAnJ+fTp0/Sn4uDHABQh0F+A1AXvHjxovha2OfPn7Ozs6U/AwDqKshvAOqCMnVuaEIHoM6D/AZA7sk2nktBEzoAdR7kNwByT7bxXAqa0AGo8yC/AZB7Fda2oQkdgLoN8hsA+Va+8VwKmtABqNsgvwGQb+Ubz6WgCR2Aug3yGwD59uzZM+qncqAJHYA6DPIbADmWk5MTGBhILZQDTegA1GGQ3wDIscoaz6WgCR2AOgzyG4DaKDU1tTr3Fqqi8VwKmtABqKsgvwGojWbPnj116tSqI7zqxnMpaEIHoK6C+4fC/UNBbcRisXr06NGoUaODBw+iKEqVlpaVlRUUFEQtSFy5csXe3r5p06bUMnmGjmEdOnSobA8AAPkF+Q35DWqp6kR4GatXr3Zzc3N3d6eWAQB1F7SfA1BLqaqq3rt3Lyws7LsN6QCAegjyG4DaCyIcAFAZyG8AajWIcABAhSC/AajtIMIBAOVBfgPwh/EERFAUPylDSC1XBCIcAFAG5DcAf1J8mqDXwrSRf6d7TUuduSubw8WpFeVAhAMAZEF+A/AnHb7DSkuiat7PX3L6/5NOJrp0sTyIcABAMchvAP6kjJxSFe6UBOHAv9NfBHOp5XIgwgEAUpDfAPxJIzxUMBr1sxSXRcxcm3nOl0Utl1Mc4VOmTIEIB6DegvwG4E/q0EzxwhZ9UwsGtSxB4MjmQ7knHhRQy+VII/zr168Q4QDUW5Df9VTW2/2junds3759h86eYxaf+sqqVgYIcgJ2TOnbya19u/Ydeo7a/rEAkuMnsG/AvLhGz9FJkVqWICN859G8QSsyPnzjUUWlkRF+//59iHAA6i3I7/qJ/+bc/vM+z/39/V/4PTy1beLsDQGVdpoqkXfz7zGLj9x69tL/lf+L+xd2XPav9DItqBE1Zcx7qc7QfmrUcpHwUN74ZRn7buRTy6WpqKhAhANQb0F+10+ESCgi/4NiqupqGEoI3p499DL/OwHAi7u471KUiMA0tTTFnxtchAshM36OAg4eGidwacRs6qBAFRUhc/nQmfzXIRXXwiHCAai34P5j9fP+Y7zbM5367/tKMOyGDNW+duY1H9WcdCL0wGijyk/ohK9Xd+i4+jWh1GrCcOTY0bcizGDRzejNvZSp9UBGaCz/5ReeoPLzG/L0KY+FZ+bhiWmC5GQRp6DSYd9S/XqqrhmnSS2Uw2azvby87O3tjY2NO3ToAPcfA6A+gPp3PUezHziqvQaNwPN8Tp5NEtfJK4azXxw9HSggMOuu4/tblK0jVgLnFWTnFPC+E01lkA/KZQkqeYyAnZPLrmqeMhk4l5WdkZVbWPmLqoSoMC+PV+NHlTh+v2DowvS9J/PIenNl/46dz79ym+X3nBMZLvhueJMMtKr6Uy2uhd++fRtq4QDUE5Df9Z2SQf8RnsYYQiT4n7r6iU+VloUn3Dx6I4aL0g17jf9Lt/R4p3LYX+5sn9y3lZmmkrKGjraGiqZBI6/Rq++Glu1NTeCZj/f/M2vmwsO+KWSCsaLuLB/haqqhqqGlrq5j4zlhW0AKFdUEnu13aHbXRvqq6jra6mqmTT2XnvhYSedsfszzI3MHudnoq5Eb6+tqqylpWjl7ztp4LbKi3nalj4EbdPFvdxsddS0tNXXjfqtfIkjByxPLZ8+YuWjNxciKG7Dx2Cd7F82aOX/5ieCi/R+6VGm/8R+joo4NdVelFiohjfDMzMwdO3ZAhANQH0B+13coqtl7TB8jOiLih14+8azCDmmEKPbc8Yc5OKJjM2R4dy2qtCIEP/rEZLe2fRceufUuMY9PkLtHRAXpXx+cXtW/reuSKzGyNU1CEHlz73979+06eS0o1neVR7u/1p97ncQSEgjBzY18eHxxP4+5zzJEODto9/D2XtP2+H7N4OMEgXOTQh5umthl1NpXhdSeKIQo/vy8zs7uU3ZfeRmZwRGJU4wQCfKiAx/uXTrQ1WX4xZAyj5A9hk/BZyf1HL31aWSekCAEnNTw4GgyniMfndy3f9/21bP33cmmHiODEIQeXPLP9r37Dh64FVt08kP7zvlNzegY0E6t0dNR//6fKhnhI0eOTEhIgGvhANQHkN8A0e48eoCdMoKIgq4d88uq4Hu/4KP36Rc5BKrQbtT4ZqVGOZWRd2/Z4OlHA1kEs5HH4osvI3O5/ILUsHsHZrbUowvzv+yaPPrYlwr6uaeF7Bs6ZN2bLFXXYcuPnL96Zt8SDxtVFCHSQg6vWH962/A+iy59VW7YfdEO78uXj68c21qLhhJ47r0ti86Eybal5z1YNmjC7le5IoKhbjto7uaTl27eunFh/7ppnazEe8sIvzhz4PwX2RW3jGdHH58663wyYdBj5s5zV87vXT2zT7emCKLhNcRTFxNX030v38+jti3BCb1+7zOHQDDrrgM76KDSwsVjNcnTluqjMxAanfq5DI8uKre3GtiYlhodXgUmk7lx40bozgZAvUD+kddnMTExo0ePphbqEe6tGfZkLRFjNN76ppAghG/Wt2eQkYOqjT4YK6K2KVZweaINubGClufFRLJqKny/0Y2MGxQzWHybTW0iwfq4ppkieUaI2ff8L4pHFUqlPJ5nzRSvaj7qUj5VRoi4r2c2orq/0ZRtZp8KLX4QO3xvBy1xpqEYhqE0G/fVb7PIp5bKvjKlsaSKy+i1NogqI4i8t6ubip8dUTb0OPqx+EnE+Nn+i1zJFCZ3x/Rc/oZPFYvJHgOK6Y/aG1z6wAkh6/FYS/H1fiWdfjfSio9BSvByRSvJW6E/92o2VSaRli28/oJ98WlBZf+uPmc/+sD58I275Xyu4+AEh7/K/nObkvzsM/mrqZlVq1b5+vqyWCw3N7dJkybhOE6tAADUOVD/BiSa4/Dhrmo0hGA98T4dU7p/GD/l+vHrMSIEa9xrvKdJFU3DHJ/DZ0K4OF3RacaGqQ2ZVKmUQee5E900UQSP8Ln5ttxcMRjDZNx/N7eNalT8IGXbkeM8DclPJ4ETxi0Xnrmy3EW7+Km1uk8aZMckTzeE0UGfqTKE/eDQqTAujmKag1YfGNe81EBqhpbrv7um25MnEAT/3cUzn3kVVkyxJv02bp7WtPSBIzSV9kMH2JLPXZj95NadtNLt/yHXb4WS75a6ac9+3Up1DtfXovVrrzy4k2pl/wa4KXd1Vnr1hXf6SgFerkWgQ3vlezsMOlTZ1lEFGFQGQH0A+Q3EmOaDhnczIPMt+f3pK29lL4KLgk8ff5ItxBiW/Sf0VKcKK4DzPj3ySyCTSNfes0ujsu29KGbo0tKc/LQV5oaERJXtQK7XePTc0WUeo+rQzFJSY1btu2BZK61S7dFKdk2tVclIJdgZadISnPvu4ZNE8tmVdT2GDJI8sDQ1pyF9HVXIH3Lj/AO+lT0AElOzw4KNFY6fU2g3bICdOPsLnl++niET4OzP1+6FssmIb9RzSGu1mrSYS0QnC46cLzsxi4YObevfOnvnaqsq/19/mxDhANR5/9d3BKgzUEy375he+jQEF0RdPeFDhpIUzn174uRbHoEaNR85xLWqod7CnJDQeHEPLhxNe3bmRDlnXsaKTwtwUWZ6atn4rCj6UE0NVWk5Wu5iMkpXU1cRf3RFPOpUQ5AaHJYifnbdxq0cNSrYH8po2NxR3ISOC2KiIiq4Bq/doK2LZcVXoVUcB/d3Fl9Bj/e/4hNfXFkWvr9+N4JPYIwGPYZ0+IGa8pG7LKL0wDGPLioPdxt0d1Gilv8/0ggPDw+fPHkyRDgAdQ/kN6DodRvV15pMDlHIjROP06iUSr1/9HI4h6wEdx471rrKTlSC9LQckTiO0gOPTRtf3oSVF79KdlrdJCkf27LKrOWlJGeI946qGZpoV/yhphsZ65FrCJyTl8OhyqoHpdsNGdJaAUX4rIDb16KlmYvzAm/cEnef07Ed0KdNjRM3MUP4wLf4NEls2UzNbdO0lCWX8H8WMsLv3bv37ds3iHAA6h7Ib0DBFNuMGupIRxFOls/5C+KBXgSeeOnonQwcUTXsMWJwg6o/KwRfIJAEhIJeo/YdKtGxY/e/pvVpVeYS809APrukUo/SGOJ+eBWiF3XyrnmS0WwHDmor7h/Ae331UpzkNIQVeP1eeCGCMJr3H9y0mvPZyFh2JFck0wxh0oA+pNN3Rnj/GIhwAOoqyG9QjO48cpiLMoYQhc9PeX8TIJyQU95PMgmE5jhwYqeiwVGVwVSUFSWbmLnMuf2sEn5+9y8sa61VRSe4H0RTVibrx2Q0F+bnVTIHDZ6XJ5lgBVXS0KpxdZlp3G9QF33yrUn9cO1emABB+G+v3Y0WEHQFhz6DnWr6et5/5QV+LDXSfs5QDeqnXwAiHIA6CfIblFBsOHhYFz3xwOvgsxdfZj09cjaYi5MRNXh8x+9e32UamhpJ2n7ZqYmp1biX2c/FMDE1oJPPTuTFRMRV/Oz54d/Es7zRmBYNrWtcX0Yxvb7DumlhiJAXfOdykID38cbtSBGCGrX8q0fj6g7OLraz9ARtTR0UPH/SNe/KQIQDUPdAfoMSKGb412gvXQzBBXFnt8/ZdfEbGVHmbmMGOHw/omiqTs1sxR3csiL8P6QUd/L6TRg6js0ks7JnhT9+EVFB93J+mo9PQC4ZXOombVvbVdxPrWoGnkM8TcinEHy8fing1dUHUYUIqug6cHCDGta+C3lESEipyvfKcWUq38KsqLd3L508fPDwyXM3X4WlVzarbY1AhANQx0B+g1IMPUf1EgchHnH3rG+6EMV0PMcPM65GRKEMuz49mzLEnbxeHtnxlEUV/yaYQvPeXlbkYQp5gcc2X8ss3a8bQfIeb9nukyUkj7L5wOHNpQ39NURTcx/atyH5FJlfLy9ffTVWQDDVXPsMqGCsWtUYdERJ0nleqp2rkp15cYeAvPfnl/dpbmZs07rXkHFTpk0ZN6JfuyZmti5jTgRklX1NNQcRDkBdAvkNSsFUOowa0oReFHCaFgNG9Nav3qeE3mLSnJ7GTIQQvNg7YsSSK1Gl5mnhJn66s+vvsXP3f/w1dXOm2/RZHXXIirXo45kpg6cf/ZRGNaMXpn04Mrf36N2BAgJVNx24YG7bH+0+p9hheF9LBooLYp49ixEhqGXHwd1Ma1j7FnejQ/8er6mgLH6L7RorbJxcPJ+86MPOwe4j193+lCZk6to1b926pb2BMg0l+HHvT03vPcg75CdcloAIB6DOgPwGZdDbjB7mJB3FhDJaDZ/QmhqG/X1M40E79k2yU8FwUfqtzYMbmzRwbt/F06t75/YtbAx1LZx7z9ty6ol/5C+6OK7UcPye3cPMFcRToz89NKmFmZ65TSPbhsYGZi6Td7/IEhEKWq3+9d7jaVTjxC2m1nJYfwcV6duBYhqdBvXV+aE/oH7tlX0PGPkeNbq4SldTtXgXgvBPYULNZuPXXPySlPL1Y0DAu7C4mOerezagoQg389m+HXfL3n3lh0CEA1A3QH7XTzRNfV1lOqaobqCjXvZisKLt8En9GirRMA0Tr7HjnMvFHaqqq6/OwJgqBrplb0qNWfb97/GDncNcjBhktTE/IdD/ycMHPn7+HyPT2DiqZOHcb8K4jsXVXxRT09FXoWMMVT3dcrONYYraBtpMGkNJX7dk5tQiqJaBHnn4DDV9XapEjNZ4xHHfm+t7N9EmAw8X5CVEfo2ISSkg692YSuOuc84981nUuWzgVnkMZaGMJsPHtJcGrrJet749q9kyUQF1FUxPk4ZhsudGzI4zDvt9ents+aBG4oYEMQV918WHlnfSIN8BPD7gZXjF9zCtMYhwAOoAtJ7/9cbGxq5cudLb25taBj8HN+GT31P/oKjkbK6Ipqyh38C6cfPWbRzM1X448KqPwAsiX/v6vf0Sl14gwpT1zOxcOnZr1+jHqspl5QcsbdlhU4QAdRp14cWpQb9kyHZphCB4iavrlvcsNZOxtyOOd1Sqqjlk9erVbm5u7u7u1HKV2Gx2jx49bG1tDx8+XPVsOQCAWgjyG/IbVB/39kzn/vvCcMxw/rWv2/r+wkHbxXCe/wzHbgfDC/WbLvJ5v8WxyrFvNcpvEhnh/fv3nz17dq9evagiAICc+A3VIQDqCFG+7/mb0SLxIDTPXu5V3MzlZ8p9f+txNBdBaBauHW1rPHD9O1RUVHx8fCC8AZBHkN8AVFfK3XMPknlklNp6/vUDNxz7ATkhp6ZP3B8lIJT0u8ya3/3XTvICAJArkN8AVAuBp14775uLIyjd2OOvTr8oSkUF7w8tX7xo4cJ5syYO8nCycx57MbzQsMmg3dfPDf+haWcAAHUV5DcA1SLK9rn3LJNAUB3r/n07iG8l/iuwgy5v3bxt2/btu/Yeu/LocwYfUTdp5dW3S2Pj/+9+4ACAOgf6r0H/NVBN7NjPnxNZSuZNmplr/vgg8qrhrE+ndl+LKsRFwsKctNjgV35vIrKFBMpQbzxz35XNI+2rnsm2pv3XAADyC/Ib8hvUZgUfzy4ZN+NQUJ6IruK0xdd/XmvxJPOVgfwGoP6ANjkAajM15xH/nVnnoYoiQnaQ9547v3lieQBArQX5DUAtR7Pt08tJfM8VPD0sOPG335sVAFA7QX4DIDcwBpMJf7IAAAn4MgCgViCEKV+Ckyu6ORse89AniEeQFXHjZs2rcy9XAEB9APkNQK3ACTs+srVDx+Frbn5IlWkjZ4fcWDZ26Z18HKEp2A8a10WRKgcA1HeQ3wDUCnR1LTUs1//8yn4uDcxsXLr06NO7p3sLa3OnAZveZIpQTKvX0oPT28IMbAAACuQ3ALWCQoOx+04t7+tszEQEaZHvn9y/fefe049R2UKEpmvVZelJv7Mr2v+qWWMAAHIIxn/D+G9Qq4iyot4+f/UpKjGTSyhq6Jo2cm7b1tlCpXpn2jD+G4D6A/Ib8hvUHZDfANQf0H4OagVW7MuL3sdPX/ZP5lMlAAAAqgD5DWoDfsCBmSPGThg7YtLZT1yqDAAAQOUgv0GtUHQdhyD/DwAAwHdBfoN6ihDFnpjds0O7TsOX38nGqUIAAJAXkN+gniIE8a/vP3nx6tmzh+8yK5r2DAAAajPIbwAAAED+QH6DH0GIOFnJcfEpObxq1VxFnOzk2NikHM7/Wc+t8X6E3Jzk+ISMAj40kAMA6hjIb1AjeManc/MHtDbT0tAzsWhgrKOuadKqx7Sjz5IrDMicsJurJng2NlBT0zWxtDTV1dCybtV/lff7vBrGaU33Q/BTHu2b49XCTFNVx6SBub6Giq6Z88CZu/3jeeTavPdHZ04YP37K1hcZ4onGs+LuLJ00TmL8lAXHw2EAGwBALhD1W0xMzOjRo6kF8B2i2DvzGqtJz/lQjM5k0jFUsqBjN/s9l9qoCC/47GR7amNyawaDjko3RlDFVsOPR/Oo7SR4Poua0cjTSYb9loBCqoxSo/2I8bP8/+1iQqM2koWqGvW9Est9t749nSopi67UwTtOSO1IDq1atcrX15daAADUaVD/BtUlYj1bM/dAaAGhZua5/XZIdiGPy82NCLiycVo3Qw2lMomY9nT5oIlHvxYQmpZeGy68TSng8nn5Ea9Oz3Y3oyHct+dnztwQIK4Lf09N90OeYxyeMHSDb5KIQPXsei3dffbOgwc3zh9YOqGLuQrKTnvzLkRk1WX4hNGjRo7wstMQ34xTQa95/xEjJUaNnjSylSHcoRMAIA+oHK+voP5dfTm+c83IlEZVxhxKFFFlFcP5nxa3VCcrwMoGPc6F86lSCVFBwDxnySrdfjdSi2u6Fde/a74fIuX2VGPxqQRq5DTXP6tUTTr369WFwyZfjhBIF0WFzyZZi+/GaeyyovS+5RjUvwGoP6D+DapLkJmRI0JQVFFbT6Pqz03us2PnPuUTKKPT1HWDbRlUqQSm6jJjursyinCynj70zaNKK1Hz/eTc9r6ZKkRQuumYdStctUvVpDXsBmw9d2igdWVt5wAAIE8gv0F1KZiZGdBRAs+5c2B/KKuKadL4732epQjJyrSNe88m5RqjMcOWzg0ZKEKwwz9/pcoqVuP94IVvngdk4WRUm3r2cteUFgIAQJ0E+Q2qS9V56OAWmiiCRzz+p0ubv9afeZ1W8RXs/NCQREnHcCza/+SRck75hHPE6Y/nZqSLt6pUjffDSwmPFHcpR7XtnOwVKujABgAAdQfVjl5fwfXvGin4emqgnVpRMKJqxi3GrTjzJZO6oiyFC0L+aaVGbVIVrPnYa9RjKrr+/QP7yXuzzJaskSOY46jLZbvDlwPXvwEAcg3q36AGVO1GnQt45b18sIMeE0WIguQPJ9aMat2k04Z7SSUjsQmhUCiuF6M0PceOnSvh3qX7oDEj20kfUbEf2I9AIJ3YhcaAi9wAgDoOJTOc+rFeio2NXblypbe3N7UMqgdnxz46d3jvnkP3v2SLCERRu9NB/0dj7MWpSYii1nRyXvUyn6HU5VTUw6FG5a5cV4D/aLGL19YggmG/6UXgotbiavEP7If1YVVr1zWhfKTRwFMfLo9UooorhnOfT3XofiSSS9a/n/qvLt09Tl4tW7bMysqqTZs21DIAoO6C/Ib8/nEEP+bUtN6TToQICEa3pS/ur28tyVjW0UE2k6+koswmW15+XODClGxbtQry+wf2w0s57GE9/TlHZOyy0u/VKpsqK+F1Mr979uz55csXFRUVahkAUIdJWtHrL7j+/X/iJh10U8LIE8GmQ88XDdwWvt/gJhmDrTh4R0TVI8WLVDj+u8b7EXH9p9mLa91M1U7eMd+ZRk3EfTnFVryxYfOloXD9GwAgb+D6N6guIaugsPx843w+maxkxiqpqRb1a6PZ9+7hoIghBM/34NaX2T/cwFPj/WAKzl5dGpDnAXy2//FdfmyqmCLIer12YPdtz7nSRRRTVVMRtxewUuJT+PW6FQoAII8gv0E1cc5Maty0/YQD98PZRSmOs7+eXH7gLY9AMc2WnVyKW6CVG4+b1Z/MUSLr29ExfebfCsmXzX1O+pebB5eNG7s9+HsTqNZ8P4ruUyc0VyUjX/Bi/5ixa+7ESzKcwAuCbq3r79p95bWX0UlCyZYIyrCwtlQhzznY6T6nz3wV37UEZ0UFhorHjwMAQO1H1cPrK2g/rza293BjcQ0bpWuZOLRz9+jWuZW1jnSQNWbZYV1o6QFbvJQ7Exw0pDVyjK5m4eDq7uHZzb19c1tjZcmtRRTV+t0pwKmtK79/SQ33Qyp8udVDkzovRRkq+pa2tma6ytIbrShqdz4ZVjzaTRTlPVi6JYopGljaWhqoKCh1OpMA9y8BAMgByG/I7+rKDjw8zMVIPL5aBsbQch2+/W16BZnHS/ffMratPrP0A0goqmrQbMTKu2kl17QFAZvc1eiYsnbHIyGlRpOTarIfqdwXByY00y39AFTRpsOUcx+zqU0kcEHkoZFNlGS2U9EbdD9H9mxAzkB+A1B/QP9z6H9eI7zEz35P/IPiUnO4iLK+uX0bdw+XhupVXIbhpAY99X0ZHJmcyxHSFdX1zaybOLm0aW4pufRcAzXdj5AV8+L+ozchcflCBR2jhk4dunVwMKiojzkn4uXt+89DUwtwNUPb9l693WzleOLV1atXu7m5ubu7U8sAgLoL8hvyG9QdkN8A1B/Qfw0AAACQP5DfAAAAgPyB/AYAAADkD+Q3AAAAIH8gvwEAAAD5A/kNAAAAyB/IbwAAAED+QH4DAAAA8gfmb4H5W8D/hcvlCgQCauFP27JlS9u2bd3c3KhlAGoCRVFVVVVqAdR6kN+Q3+DH5efna2ho1J6vPGNjY/KQWCwWtQxATZCfnFu3bvXu3ZtaBrUb5DfkN/hxqampTk5O5P9SywDIsylTpjg7O5P/Sy2D2g2ufwMAAADyB/IbAAAAkD+Q3wAAAID8gfwGAAAA5A/kNwAAACB/IL8BAAAA+QP5DcD3sdns3NxcaqE0AoA6hPpYA3kA+Q3A90VEREyaNCkhIYFaBgCAPw3yG4Dvc3JymjBhwvz58yHCAQC1BOQ3ANXi6ekJEQ4AqD0gvwGoLohwAEDtAfkNQA1AhAMAagnIbwBqBiIcAFAbQH4DUGPFEZ6SkkIVAQDA7wX5DcCPkEb4unXrmEwmNXIWADlHfbiBnKjv9/9OSkoaN24c+RVMLQNQE1wul8fjPXv2jFoGQJ5NnTq1RYsWcP9veVHf85vE4XBEIhG1AEC1BQYGbtu2LTg4OCoqiioCQJ5BfssXyG8AfsT79+/Xr18/d+7cwYMHw1VwUDdAfssXuP4NQI1Jw3vNmjV2dnZUEQAA/F5Q/wa1Ay4MDsu5GFwQmSXMZeMMJYaZiYqni04vM0bxOSYh4p7zyQrDFdf11KGK/m+89Nwdr1hCA82/26pWsxNEcXg7ODikpqY6OjomJydT6wCQZ2T9u2XLllD/lhdQ/wZ/XnZC1tT/wiefS/UNZidlCAVCPCedE/ghY9PhiMkP8zNwajME57/4mP08kE0t/gzCAs7D9zkBETwBVfAdsuFNFQEAwJ8A+Q3+sILEjMknkz9nEIZ2ekun2vmsaOy7tLHfMtvVnhqqmCj0RcKy52w+te0fBuENAKg9IL/Bn0QIC/+7mZbERRu0NDs80rC3GVNJ8pGkKyp4uJkd7KfBQPCwF+k3s4vr4H8MhDcAoFaB/AZ/UlZ4lk8KoaCuMbW7ul7ZDyPa0FG/lwmKEPzQJGHlAY7Hxuadep62/VH64bd5n3IrHAqIpybmn/VP3/4ojdwmKL+q4YIiDuf049SND1KvxJc8aWRkJIQ3AKBWgf5r4A/Cb10J3xgoNGvV4Exf9Qq7j7HZQlSJriyJdkKQP21LXCih8fxfc8lKpDAjb8215GfxwuIPMUanN3U1Xt1Vw5BGlfBz8tdfTXocUxLGNCbTtbvpqjYqyuT+o5J7nshSsTW+NFpHhXyKQs6W07E343CTZsbb/9I2p1MPycrKysnJsba2ppaLSPuvJSUlUcsAyLNp06ZB/zU5AvVv8McQIv6XNCH5IWxgplRZ328VFSq8yxOyCpaeSvCLF+nb6i4cZ+U922ptX11TJWHQ84RFDwukndwIAWfzuXifGJG2lc68sVYnZzVc0UNLC+X7303cG0k+dSkEr/C/85LwdjTeMbAkvEk6OjrlwxsAAP4gyG/w5xDCTDaCojRd9R/4HBLBb9LeZBM6Nob/jTT6y1rZ1kC5ayujE2ONjJlEzJv0K+lkfZtIDs70SSE0zPS2jzIebKNsZ6ji1c7kPy91jOD7vy9gUbsSI/jcQxfiLkZJwvsvbbOi6jsAANROkN/gT8IJhAxw7Ac+hjjf91shgtJbt9Eyl8laZUOtYfZ0XFj4JoJPbvTqG0tEYI1batkyqA3I57NwMj4xx+7cIC1VqgTBRYJTl+JOfRMYNPmR8CZArYGL8qMCXz64eeni5Tt+ASHphVQ5qA7qAw3kBOQ3+HNQmpYimX6igsIaf3EQOD8+D0ExBVsjlCqiYE2MmOT67GwBggtjskUIRm+gVyqQUQbDWo+pIlOWF51xJoxPHgQri5ddtln9pyvw2di/ub2tjZStrV2jJk4u7XsOmbbxmF8Sl9oI1JQg++ORJUNaNTRv1Kpz74EjRg7v383NqYFhw64jV90Jyac2AqAOgfwGfwxKY1rr0AhClJQuqKx7OTeD/SiWm1e+wzhBSB6DKjDK5DeiQBOX4Di5Cc4ThzHKoJfdpgwCR42a6nVpgLFTs3Y+Z/3SDCUEcc9u+4VEx8ZJxcbGREWEfn776PqxldM8WrmMOPtJtl0fVEvWx4OD2rrP2HH9czIboasaWTZq1szeTEdJxEl8fmnD4A7um/1yqE1rn8JvR/vYmZo27LT3LZy+gRqA/AZ/ENbWStw7LSmiIKniAMdfvk5ceSRi7NVcDlVSBKVL6u7CjPwydXciJV8c2srKNBSlaSphZP0+h116G5z/8nPe0zhuftGTqpvpbRtsuKy3vh6DiPRPOZFQs/vRUY2P1Sd5Xn2nqWdu3CRdvXDq4LalQ1zNmAiSEX55zqDpD5KF1JagGjiRp8b/tfBeDAelG3SfcdD/W2Ls10/v3n2OTEz8dH/PxM4WWEHI00fh1Na1Dz8nLjIhIyMpIiFNRBX9OZJPNJAPkN/gD0LNm2hYKyH5Cdknwyuogguyc08E8cmodmgiHuslC6UrOBrRyQr2+2882QcSQt6TCB5ZtW9gwkQwejMjBln0NYYrOz0qLy13w5X4Dbdz04oeSVem69MQJSOdJe2UCAH3xp3MsGrOp/p/UNKy7tDdk9Sr/5Bxs1Z6+/qfmOzAQJD8uCu7D3ygNgLfQ4hiDs9f9iCJj2IGI7bfu7JjXAsTJWodpmrvPnnvvYCH++d7tWtAFQJQV9BWrVpF/QjAb4cpKJgIWA+jeTGRHI6BipMuvfiqNDcnf/WFpMBsQtNC75+u6trkqSbOu+ufl4EojuugQT7UVElwLYiTlsTlmaq10JI0mosEPo8Sjn8VKupoz+yubkzHjFRFtwLZaSk8vjm1DcHnHr2Z8iaTsG9nNMqSIcwpOPepkKmjNshRmYmgpqYK0aG5X1MLoxmqnhaM7/ZjY7FYBw8enD9/PrVcHXj6kxMnXqUINC09xo9orVrUtI+iqrattQK9b37jiLh807njO0iKhdlx4XE5mIaWMg3J+3Rt/9bdx28+/czSsG9qWtz9TqwgIeD66ZMnvU+fv3zzod+7bylcnQaWOtLZ7CrAj39388TRoyfPXLzjG5jKZ9D4uelpYhmZHAUdLUWMPO3JjQ2PLsA0NJRporywy3u37j1x9UVQpq69g5EKtVuCnxHke/PCuXMXLly4eP3us7eh6TxNi4b65MPL4OfGf4vOpmtoKdEQnBvve2rv3sOnrvu8T+Tq2NgZKBa9CXlRvsf37j1y6orvuyihrq21gfJ3rnwgSM7z9VPWPcnFUfteW45v8tQs9wAUVTJzdm9tU+rtkuBEv7516qT3qTPnrty8//xdWAZPs0FFB09WkGO/xWSLlDVVmWV2T/CzY8LJVSraqsU9JGV/ZUhh6ruLB/cdOnHuzpPAFJ6Oja2BgswucHZKWHhMYsTzqzc/5hEKtm27NFDISktLz8jF1XXVigcwEnjBtxfXTx4/efrchRv3nwVH56uZWRmVrKfIvsmZoTf+27L71LWnYVnq9s3Mvv8+Sty9e9fExKRly5bUMqjlqEYTAP4QXMA9ee5r26VBbZYGe+2PWXI7efujlH/OR3ZZSZYEdd4WdzuTalTE+XlT1gW5rY2TLhIiod+jyPbLgtr+G9L3cMyMszEDt30h9+O2LvJQjIDahhC9eR7d4V/xNv2PkNtE99sUTO62x5G0L1zxalZkUsdlQT28M1mSrUmZEUld/g1qvzryRPL3GzNTUlL09fV5NcFlfVjorEL+6TXovC2+kCqU4rI//+0ijhmNBhOlJfkRu10VURqz1b7PURfmtFIp+ha2639cugGJW/Dt9MKuxgrUqmIMzcaTd7/IpLYqUZj1buvgJkqVfKGjqNbsSznkVp93dCMTyaTtmuCoW1OctYo2V5rsnSXZTebTfRNaGCtSxSVoFm3mPYzlSLahcAuj1nUmT7nofdd/Snx7YEAjdWpbMUbTnts+53C5hamPdwy2lDksjGk6cvvrXGoflcnyHtWAfAxKs1j+kDzs6soOvzrLvUG5WQcww6ZDjvinUhtR2C9WtCGTWMVg+MNcLlVGYT/914VcpWoy+nHRqpJfWVDaqyMTGmnIng7QG3mse5tevBP28+WtKzxHpDFb7v3Mlm6UFXx+UlvjMpvR1WzG73wh/U1Iyb7JYTfnORSNyWSq9bmRXeawKzVhwgTyfJT6cINar9ypJgC/F0pXGDOk4QZPLSM1JCexwO915uWnGU+DOYUE3drJcPNk0146lXxKMVrHrpbHhhu0tqDnp7ACv7JzEYUWbQw3T7eYbFFcNcFauTU4PsKwtSU9N5kVGMZm0RXbdTLbO1q/SbnAk9JpqD/biSnicS7dzYyu3nVw6o+p+ip7HM4TCMQraQoK0gKRQCCZN47/4eiUqf+9xUzajpgybWSvtpbmutINcFHyuZl9xm17nMxDVI2a9xk5Zebs6aP6tDZWQgS5oUfm9pu5L5gv3VQCF2VdXjhiyaUQHtO898wtx8+dP7brnz5NJfGMKhuYN7CwatrAABWfVkmemc+L3jdp4uGP7IauQ6ZMG+PVxtFIFyP3I2Q92r7sxIdkkXFj91Ezlq7bvGX98rmDxJfwRbEBuxYuulh00iVB7QxJCzs6qu+s699oLbzGTJs2ooOVOooIvtxdtnjbs0ebhv214FKKqkO/cdMnDetEVhhxfuK5fybse82mdlIRUeH7py9TyLdMw6K7R2tFqvR7eEk3pvUauedJHB9RaODsNXrKzFnTx/ZoZa6I4KlfLs7qN/xUiOTkrohAKO5RIRIKhOXO6AR88SqcLyjusCD9lREE5+3R0f2mHovALbsOmTRt8pA25uRJmzDMZ9X81b5FJ4uourmNrUUDc2MNyeeVpm7QQMrS2sZATfz54MZfntRn7JHXyUyDFuOW7jx57tyx3cuHtzUhCiJOLBi00Duy5IiK3uSsyGOTx/8XwjXqNHTylDG9Wzo00BT/xqpFfBRAjlC/NwD+OJEwIZn1MCj7ysec++GsOA5Olddi0vo3tyYKC94voOrfW+M4VKFUXtiudpIqtk2PfdKSnNBtrcRNtjQ6DdG2HXMnmiUtL8L5dm6Ugfj0hu7Qd+enjEKqmMtNerOrm4k4FBS0unl/LXlUzueNzuLWarWBWz4WUGXc/Pgrg8m6KKoxZMenoiNiv9/cmazzoeJnZrQZdyGeTa2QIl/FjhnT/7sVkksViBWyI/f0MyP3zlT3uphYcjCF7K8r3dTIgyExNFuuvBEp3Rk79fEUB3HHBkxJRRHFLNv97RsrPVRO1K0ZDcUjC7CW46/JPkUZeeE720jao217H8qgyr6jkJN4dJgl+Z6hDLMx/wVkUcWkDL/tfSRvJmrjuSuq5PWynixtSb4VijqD7maVvCgJls/i5uQqZb1hD3KoVUW/MvF+TJyn3gilDr8g+cGEJuIXq6Tb/0Zyqf2kP19sRUdRVG/e1WyqSKKQk3B4SAPyiFRMe5/9kkeVkuX5IVt7mpLPoW4+5lE6taviN5n8jWFMq/mXIkt/uKqlpvVvssru7++/bt26mzdvUkXgN6qkZgPA74fRTI1UPBy0/mqu6WmrYl5ZC28dRfCjvP/dHcAmUFS740AvqpQiIpiOi4/s6Gpc6pInIYo9e/BWGk5+jw/benCqvVrJO6bjOPm/dQO0UYSX8/TShfCijnpI1puAUC7BVHcbPKJR8QVbpn63wZ4NMCLv5eVbiaWbHMiTKn3nebu399Uv3YCLMppO375jsoeVbAM6SjPtP9ydrMsLOd/CI3hUqQyacpMlZ6797Wkq3RlN03XGpI7kHvBCjm7LBaevrmpnKH2BmHGXmaPakGmEJ37+kFD5iHxecmKa+IAxbWOTStpTyuLGXDhyIxZHsBYjtm+d7CQ+k6KotZ62d0U/8Q1zop+cuvOt8metHgOHqSdvbPdsSL1DDO0O86e7K5HHnPs5MLSCN6c8buzlE7fjcUSl1/zN/a1LXh/KtBq3dLQNAy1IePDAv5AqLSIS0rvOP7qij+mv+3Ln8/mvXr1av359//79ly1b9vjxYzb7Z96VH1QT5DcA/y/qZLjapI/i5id88H9Jeu734OKRtSM7dZ53NUaEoFbuS+YNMiraUroxrdXodRNbKUsLi/FSfH3f55Nrm/Ud6apZ5jBQs54DO+mTcSgMffk8i2pmFeXnschcUtTQ1ym1M0xdSxz+vNzs7KKeA9JnRumW49bOb6ZU3dfI0NPXpKEEUViQL9t8Qr0Mi47TZ3bRE980iYIaNG1iLB6dr9ZnzuIWGiXPgmBGjWzFd6QrzErNElTaEiNiswvF7xKqoFLNQxQlPH4UWEhgdIueI7qpUYUUBNXrNagLef4h4ocEvCgZyyU5djFqWRa1RubIqdfK7D5jWXs92ZZrVL+ZgykDxYWZ6anF/TOkJI8gUYtSotRnTwM5BF3RqUsPc5k3TUypUYtm2jSCyAr7FF10nNQTa1mP/md+a+oCTM1J9lGx8rHN4ZQd1wl+J8hvAP6MtA//DejWleTh2W/MrPVXP6aLEIWmPVafPDW9YalqNolm01zS5l5a4deQKB75havcuIVjcWW6GKbs0MRaPJIqPz4qgRoOh2kb6JJFhdmxCVnFdXJSblhoElmPVdY31Cu9IzrTpllz2e5mZeGclEC/m94Hdm7esHbN6lWbTr7OE5FJIk5caovSyjSq0NRVJVcM0LIrEFRVTdwCIxLwJV0CKoFh0qq8SFDN6rLga3AUuSlD1cGxWQU1drVmTSXt9sLEyKiaTQJQgbIviXyxkuEGXD63qpgsIvwWGkn+3ggk5+nRtatKW73xRqR44CSRm5lR5ji1bZyayLTE/P8gtmstyG8A/gyUrqyhqamppaWrb2LVpHXPEfP333j77OqiFtqlm6orJ8jMyiEr7DQNHb0K7t+G0nR1tcRpzOfkc4rSVMuth5seTcD2P7j+jqTlmSSKe7h538N0BFFy9vAwrPZXgqgg+NjC3o0tbFy9hk6dv3TV2g0bN23e6f0yqzrZVAytPGmka6rcG11dSxUjt8Pzskqdj1ROlJGZR26pqKGrXdE975h6Olri/MY5BQU1eh3VgomPlVR1NbcInp1dQB6qiBt6ftvmMrZsPf0pV/yK6YzyZ24/B8R27Qf3/wbgx0nv/x0bG0stVwMh+LK8c+cdH9nmnbY8uzNT0mGqUtyYfd2bL37HZ4w+EH1wjDZVWiTj4mjbcVf4NJNF14JWdSuatKRE3qFBjefdzVE3H3/z057W1CDr7FNj2ky7nEggND3rNm0cDYnMMH//0BwhYtxiwaV7a5ypqpso5L/ebZb4YcoepyKu9y0ePlYE5wZvGdB7rV86gShYtuzeraOjhZ46k47yk3127fLJQAznX/2ytjs16Q4hitvs1WrNywIrr72vro6nerJJsEO3urddFSxQn3Y2Ynt/2SHa/CdL2/fd9UXJeNS14IPtK+kMIcw83a/RtCds3Mhl+eMn/1h+/8yHc3yY3cybWerm465/2tu2eOB5EVHu2X5WU3wLEZdJ1x/t7iaJeOHrte4eG98ztAdeDvfuUjyGT0z4fGXHnlsDFfSGXvl6rJPkIKv4lRVG7u7acmkgnzH+SPzeESWtGvlvV7brui1apDvnUtiGnsUzFXEvTHSYcC6Jptpi8r/DyjXJkFCModumzwAnA/HLruJNrr6ZM2e2aNHCycnp6dOnZHhXP7B79uzZuXNnagH8LvU0v0UFHw+t2v0sgSO+/5UEimI0hqKqho6pVbN23Tw7NjP8Vae1oA75s/mdfX+W08BjmYTKxOOR/w3VoEqLEMJva7u13/SGZdhimc/TZdaSAMj0+7tj371J6g6tGqQHfEyVNjqjDP12g+Zt3DCzRUkvtarzG485M7rNlGsFiGa/1TcOL2xVHLxUFOEGvye/CUHI8s6dyDeTrtxu37v7oywrSLnSuFenNR/tHcfU6H0u/IKXetndFobv6NJ6+Sc+zWu5/6V/HCRvhzBgXZduG97Rtfpf+nam2+/Lb/7DRW0G7vtKU+1x5tvlXuUnpintp+T3jBkz9PT0yNj+8uULVVQ9xsbGhoaG1AL4bcj8roeybk7UreJ7E1Wybjf++KtaMBlxdYkSX59a9+/SFWuPvE2FqbN/H+n4MfL7rvrYeW/nS65lk/kdw6IKK5MdstVFPBiJOfpAIlUkIytoY3PJ6DLXGffzqLISubHHPLTITznqPPZSDlWWeWyYKYrQ3GY/yuPkJoS9fXT72u2HL74m51PrSxS829SJTC+Gssf5JDZVViL79FgL8olVjUY8yCi1NtVvkXgoFGa44HomVUS+5IKwFe3FgUJGSxpVRsl4v9pB3F6tMe1sOlVEyb0ztyl5AKrGo3yyyh9AsfzH/4gHd5FH2m3Js1yqsAoFAevak9ujdIvlD7OpshKssCPikwjy+OdfLT7+gleSh9AVO3tHF1BllLRzE6zJt1hZb+i9ooOs4ldW9Ptijj+SShVJpPotthaPHyPzu+RNIw/m804PJoJgdJu1T8sfallVvMnVN378eOn4sfT09MuXL5Nx3ql6zp07J/2LAL9TlSf/dRchFEg79GBMNR3yhJOkq6Ohwiy6PFUY6X98skeXVXdTqndR7Y/jPzuwbMW6DWtWzPP2KzueBPxq1B9TtVEPI1EFValiSwXzDu1tlci6ctCNk0/Ty5y3CT6f9n6eg6M0w4492zOpwsKsHBaB4OkRn2JZDG3zJq7u3d3bO5tp0Kj1pVTxzASfJ/4DoispK5WaG0SUEROfL23UokqKiIvKl4pVuoZaUfEBFKE1HzXWTYuMV4HfgUWH3+RRxaWIkt+eO/0wXvIzZtnRzYqBEsL42953irrlU3D+19Mn/Fjik4au3VyLZ4PBDE0MFcl3mRf64a3s/oVR1/7+51Qk9RVBFYpJCyo87grXYAoKCihZyM7Lkb1dOWrs1s6eieLC6PsX/auaxaaYdO9Vv2FVonaAIOQ34sCBA/fu3Xvp0iUyxZs0aUKtALVJPc3vYmauKz+nkuea6ekZmbmswpy4d+c3j3GQTJQtZH3ZM/Pf57kln+narfirQfpfUPehDIeR49uroggr6fKi8VveUM3hJFbgubmTNr7gIohpq8ljPIqb1jXadWmpihLh9xe5WFs7tmzTzq1Tt+49+gwYMnba4m0nHkZXcKPWCjGsrMXDi/Pjn/oE5FJliDDi7rIR8y5n/N5zXsUGI1YscFNDEUHe2+WD+6w48zFX5kWwk18fWtTHzWPyoZtB0hIVxxGjO+iiCP75wqLZW/0yizbGWWEn5ozb8SqH3KTT5BntZJrWNVzaNFVCCSLt8pbNAVR377z3p2b2n+wdT9D//+9QBUNjPXG9nPvh8SNpNzxCKJ5KTclu2JiuhigiCjgxe8nxMreVxXOin589+aDMeP2fDoK8Nqvv+V0apm7Wcujikw8vzmjIFL8zuXFXL9zOlK4DoPahNR63cWl3MkrxiCfrPJyadPT6a9BfPds72HecdOIbh1A18Vq9Z45NyUVhmuPU/Zv6i6f04uenRIYFf/r47tXLZ74P71w+tW/lzAHtXP468rY4j6tAcxg6uoMODRdGbhnRdeT8tZs3rpw2qH2n4XvSzDu7lJ5k5tdjtpp9dO/UFuR5DC/j3fYpbrZWzTt79Rs4sG+3dk2sGnWdv/9pqlCnSUt76dYozXLS5uWdDekEnnZ9TW+nxu16/jVoQM+ODnZtZ3kHcxF6417r1s9qJmmTpyg0GDRR8qalfNzTs4VL9359u7Rw6jrtVJJqxxX/DijXt6/GaDpunVpqkqkdfHlmx059BvTu2Niq2/FwIYqZjNm82tNUAefFHJvVqUXr3uOmz1u4YO608YO7tbK1cfSaufhYUOFvOmGHIK+FIL8rYNh5+jDpaFuCHfrhS2V3kiSE2cGPz+7etHLJgvmLlq757+SdkLSqp1USJgfdP7pjzZIF8xb+s2rb/nPPQtIr2zmJl/31wZm9G1f+s2D+wn/X7DxzNzCTT60CcgxT0dZWoaN0dV0txvf+/jAFDU01Bo2hpalZcShiTPtZp27sndbRUAERFiS+f/7g3gO/wOgcEarazGvhuYdnhjSSHeUsiriyauPtOIJhMmz9lSePH969ff3yxXPeR3YvnehuoojkJz1aP2PrZ7LajqCKmpqqdExJU6fcba7EFC1G7z22uJ2xoiD36/VDm9as23b6YUKToTtv3lzfyVSVrqChoSrz2lAFTU0VOsZQ09aUzUUSTUmDfBqagqaGapk1mKqmlgKGKWtqq1CXtSqF0owGbrt7//iCrnbilnR2xre3zx/dv//41afYApGyteuIbVf9/htnRW2NIKqNJpy+fWS8mxmTrMUmfvJ7cO+h3/vYXAFdzeqvxWeun5psVXpoGYrpDtp8dLGHBYOsI2eFv3z0OOBrtoHzuCN3L05ubaSuQFPW0CjuYFfFr4x8N7VVGRhDW1Oz1C+ePKWYuO7vDsbks3JiPvg+fPI+haukKrllmFLDESfvec/0sFZCBYlfnlzyPnzg4JFTF+++CkkRqlh0GT2kWfETV/4m/1wQ5LVHPe1/nnVtrNUg7zwcadBpm7/vApOyX6Ock8Osx19IIRCs5cQbL4/0LjPRA4HnvDi8dNF673eJpc5+aUrmPaZu3LF2uHW5uTYK4++vmj5n7/3Iki7vJFSpqcfSExeXtdQo9Q0lyH63f8mCzadepohn5yiGajboOHPj3qXDmhQPFUq5NtF5qHcGuU8cF4l/lShKw4peDarXaO6991ubVzBNBfg5pP3Po6OjqeU/pzA99OXzN2FxaWwhU9OwYYv2HVtaiXuvyRIVPJrsMvhiItFh1q0rGzsUd3SWEAX/17fjUj8hw2HT8+fTxTci/z6cnfD68ZOPkem4solTJ0+3RuK7vP5RnPjAV68+hiVmskQ0FV0Ta6e2rs0tSqdlCX5yiP/LN1/i01k4U924oaNbp7YNqso+dtRrn6dvI7Nx9YaOnbp3slP7qa9WkPvt6f2nXxJyEGVjx449OjvIdrEVZUa8eREQFJOcw0MU1HWMrBo7ubRopPOz/7RnzZrVunXrKVOmUMvVk5GRweFwGjSAO6z/bpDfFeQ3gafv7Gm/8EEOgdC7Lnl+b2Nb2S8zAk++MKv3xAMfOeK4ZOhbNrUyVuKmR4VGpvPIHEVptl03XLuxqInMHXcFmQ+ndRx0PLSAXK2o2aBxY3NlUW5c+NfEXD7KsFn3NOifdiXTSPOSbk3vMeZEkPjCO3mqbtXU1kBJkBoZGp1RSO4eo+kN2nz35AIXyQPwiH09m8x8UFklXkVv2M24s10qGXsD/n+1J7+rI//tyvYeO2II82V3PixxK/nISWVcm9hszAU2vcnGZy9nNIPhk/XRj+U3+FP+9OlyrcSLu3HnrXj2JZSu36J909LfZMKPeydMO0iGN6ph0es/n4iEqI+vXvh/DE+KCTg0pLE6Soi+PV65aNMbmaZu4bu9q0+FFRAow2XEseDEmA/+z14EfI7LSHpzdfOIzq0tqXs2iBGCrzvHTT5JhjfKaNZng19k0rePr1/4v/+WnOh3YKytCoaLMq6umHzgrbSTOdZgwLID27du2bJxVCvJ+FBUof3o9VsoW7fsXdgawvtnSElJqemI2FoIozMZKEKIsiNCk8p0MiP4kRfOPWcRiKphy+ZWv/kCNgDgR0D9u2z9mxVzZ8nwcQcCMnEENW+7+qHfcnuZi2H8tIuDnUbdTBUoaLbf/cxnSrNSk15xwnZ7uC7wzxWpGg65HHLeU1ucnYQoZp2704rn+UwV9xNffYZT916qEB57bpTLqHOZOGbZcd39B//YlaojCT/s7NlpgQ+LwByHn31+dqjMtNTcc2NsRp1KxFHV6edS9g2VnQcD/ARkDXvBggWLFy9u27YtVSRB1r+bNWsmL/VvnPtmcYfeh8IKUYZRp8Eje7o1a2CgThPmJ397f//iuQdBGTimN3zn/f3j7eC8vn6aPXs21L/lSH3/O81N8Nu7bq3E6uVLZo/q09quSZ99kvDWsR68/cRi2fAmvwAjr5z0SRMgCN1l9KqxpcObpNxo7KQexuR7yk739XlWNNwDz8mVjGjBmBqa6lW94QSeePnEwywcwRgWY1bOKR3eJLrj2CkeBgxyj1G+t9+SdSXwuzRs2HDjxo1btmx5/fo1VSSHMMXWy45vG+SoiwlSnp7dunDqqEH9+w4YNGrmst13gzKYeo7Tdl7bDuENgJyo73+qeVF3Nq1cIbFq3eY9Z26/TS5E6MpmnlP2PPQ/O9CuTP+Q7Cc+H7gEgtKNOvVyrajviFqrVo3I+jWB54V9+kaV0YxNjBTImjgv7+nx/e+qmFBYlPn08TvxZW91k64ebctPZ43QNFxaNhb3OirM/RISUUXXdfDz2dvb14EI12o6+tjzT2/uHlu/ZMbYYX/169On34Ch42cs2X7s7oeg55vHy94PGwBQq8Gpdjko3brtqMVLp8jMBU3BeWHBYeJqL0bTxtiBARV4G5dPVt3JbUWZKcnSR6GYfs/BnTUxMtRzry3r7jFqk89XyZ2DymGHBX/jiNcoaCtlBb6hdinjzdvoAoIgd48LM1JTqnnDRPDT1I0IRzENuw6DZy/btOfwydNnz572PrJ707LJgzuYyY74AgDUevX9L9bEdeX72Li4uOiwTy8u7JrjZq6EEoKvvhuH9pjhm1p2ZiNCmJKcLu6XJuJ9XtO/XduKeK14LL1dsZBX3IMNsx2zbctweyYqjnD/M/94OVg6e07bf+crm9qAwid3LxQ/OO3j7t6u1A5L67Txab54C4LPh7Hgf0LdiHAAQB1Q3/ObzlQzNDM3N7e0d2w/ZM4un5fnRtgrkzmbHnrsn2U3s0tXkwl+IU+Sr9+FYup2ze2oBXKRZjHhpN+tbeOdJQ3puDD388ODM/o0a9p6wvlP+dRGZH4Xcqu5ewVNh6a2peeYAL9L+QgXzxwNQJ0g/UgDuQAtZqUomvXbtmeihWSQTeD59WeDS11jRhkMhmQqKJpC2z3vE5MrlZKamXRublPpo6RQmkH3+cfefQu5uXdBL0cDOrkbQhD79vh4j77HgsTzXZGKdo+Ytl/9KYnaVwVSUlISfMc1hkE+f0xxhH/8+JEqAgCA3wvGj5UdP0aIYrZ4tvrncSaB0FpOuPr0aN/iwVg49+FYu76n43k0BccdAe9mO/3wHBesz9c2z5mz9Xkij0Aw+76Hnl2bqI8hOfenN+59IFWEGDn/+yRgrX0Ndv/j48f4fH5qaiq1AGoiOjp6+/btYWFhgYGBVBEA8mz27Nlt2rT5FePHCD7n6IOcGBxr1Vq/n1G5MbS40OdFul8O1rG9fveqbu38A0QsHk21js5BCfldwfxrKTcmOg08li5ClHR6ngq6OdCY+rQVj+RGUM0Z52L3Di2+rdOPyPuwtqPbqs+FuIru0Bvx57oqoYVRuzo3mf+GRyjp/HU1+rKXzB2Qvqc4v1Wmn0utUX7fvn370qVL1AKooczMzIKCgvv371PLAMizX5ffOCdnxMbEWBGibqq3c5Jh4zKVE5y39eC368nMvyZYL7CsYoaMGiGyk3K33E3DW1htafHDda1aDfK7gvzGuS9nOHkcDC9EUMX+G99f+btJ0Xr+k3/aeGwKFCGY04izfmf+rwDHuc+nOnQ/EslVUO19KflmHzUU572b37LT7i8cFDOYdeHL7kG61Kbfx708qfHQozE4ojD2SMKJiXpUMfiVLl68eOPGjWfPnoWHh1NFAMiz35DfCII17mJxoItK6Zk1fkV+4743I/59I3D9y257Hc3vn9tSUUdgim3GjGjOEF+i5r7wPvaJW3yKw2w9dEATRfJNw4OvrN7+IK3CYWBl4OzQR/eD8sttKkgL/SaeCgZR1jcVT8pCPq9C88EDHcUX3/H086tXPKfuNFwdmLa2tLYujAj6XPVN0MBPQYb37du3ly9fLhQKxd1+AJB/1If710ERFMXDX6ScSPjF9y2vHyC/K0RvPmqUq5r4NDDr24WzD3KkpSRlh6l/D7emoYiI93XTkM6TNt0Mzyru44YXpIb4nN06vX8r+1Z/fypK0YIPxyf3dXHuMH7XlXfpVE81PDPs1rLxa18UkB9iml333s0UpU3l9JbTlgyyIBeIjJBDgzsP330rOLd4mDfOSfry1HvLnN4tLb3+eVl69hamXTN7FfE+RB/Or93zKIYj4qeFPTl9+kl6dU4xQA1Jw3vnzp3a2tpUEQDgexiKap0dmTi/8NrtjNBqTEBFCAQfQrIPPknb7ptxLpidLDNoNj8xZ9uD1E2PskNk6isiDvvko9SND9KfZXGuPE67mkB+exIxoRkbH6Q9zKiDX4WQ3xVTsBg8ytOIfHcIUeq9E1epUvL0EdMdsv34wnYGGIoI8sOO/9OvsaGmvmlDaysLE101LeOm3UcuPnDjXUpKZkHRfULpauoqqCDK/8S8Qa2NNbVMLRo2MNYxbtpv+5NkHEE1LQcvXeJRPNcaU7/PDu+lrXTIMwQ8LeTS3L6O+hq6Zg2tG1qY6qhpmDm4j/37vzsf4rOyys4AY+g5zNNU3CLFzXy+yMNKlaFo1LjL1PmHP/2u2/vXH8XhracH1ykAqAkU6+xh7KJFpm/W9ufsKuewIFKjMkbvDJ95Nsn7cfoV39Q956NH7IzeG8GXfvWp6THzwjNvPk3e+oxFJTguvHUv8dDTjDfZdBsVwcNXmYHkVyyCpIRl3XqR/TarDn4T1tP8puuammowMbqyjolBBfOUimn3nzm+mTYTQ2n5sRFUmQRNs92GB34nF/VqqC4eBYYLORlJMVHRcclZHBH5CUEZBradJ/w71bnoxl/KjlO2rB7qoCeevkXEy02Ki4lPyRXgBIqpOngtvvDoeG/zUtd7DNyWP3hxYU4Pe1UyxMkTUE5WYkxUTFxSNkc8OBxjaDm4j589uUOZDpV0nd6bDsxuri0+JPJRkrYwVEXfVF9aAH4SCG8A/h80ZZVlvbWVMXEr+snESlvR2YmZU86kRrPozh2Nt0638Z5pubCLBpPDvnA2/nC8+FGogsqi/nradCLSP9VbvB8i4Uvq7kC+kpbm7N6axorqB5c1Xt2arNKgbQfYP19jv8z+Z11Wr0Xqaf+1n0KYF/3yse+boMiUbJYQVVDTMrCwady8lWtzW53ynSVwTvIb30evg6JSMnIFdDXDBo3bdvF0a6xT+QkUnh31+rHv6y9RSTksPqagpm1gbtvEsbWrS0PtSmdu4aW9v375wcfI1EJE1djGuXu/Ps4mZe+CAn5Y+fCW3n8sMjJSugiAXJszZ84v7b+WpKCxerFZZ7rozo2oDe/5aqZ6uyYZNiK/Lsv0X8MFJ05HHPmGtO7TcHtrcYcjCSI+MGHklTx1O+OTI3Uko8zwN4+j5z8pVLcw2DWQuflgQnghs88oq79tpXNj1P3+a5DfAFRLhTVvyG9Ql/ym/GaiInbB/P2xb3OK+qKXzm9y4zFbEuPoGsvnm3RklrQgEvyCGdvjwwn1fxebd5f0GSKEhVuPRF9PRDQ00bwc3LajxYHuquJbPIlB/3MAAIK8f/8ems0B+FloKqpVtKLzc/jpQkTAyVuxLrTjipDif53WxYcUIiK+ICmPqnaidKVZ/Q2MmXhejkjDTG9J5+LwrhcgvwH4vubNmx86dKiy8JZ0NwBA7lEf6N8B1bc1mOcs7ot+9VZGWOm+6LiQICOdoaLo7KTZrnnZf67NVS1kLiFiGCqddprPEWRLbx5Vb0B+A/B9NBpNRQVujQ3Az4PRvbpTfdG3vuDIJjhdkaZA/tExlMf2N9s2qNy/vwzdtajkIoTc/TdSk3iYjh6dm5Wz+2F+xfdmrqMgvwEAAPwB0lZ0JXEretrTklk2EIa2ko0qwstn+Um6mhcT5uetPhu35E5WUX0d//Qy6Uosrmmpv2uiibMGkvgxZXeYoDjB0bo++AbyGwAAwB8haUVvzsQFAhabKiKhDOUhzooIzn9wK/lBJhXhBJ976lbKg5D8kBxEWzIWjJ2YudKPgykoD+mlY62m9k8PLSYh8LuT8qRotku6ZAhuAVtUV+vkkN8AAAD+EIzew1Pcil4a1qaj6WArOicjd+2eb0NOxM04E91ne+SRUIGipvokLy0DTHxDs5030jP4mH0Ho+GGZJChJk0MpjZhcPPy9t3Lk8w7iZpqiWfBDnkc3WdP1K6Isr3k6gDIbwAAAH8MTUX1317aSqWzCFVQmjPGan0PbRs9NCUmP/Arh0NTaN7acMtUsz7iod8i/6fJ95IJNROdee2VqcFhGGNgD0M7FSQ1OHX7Zx6OoJbNDYY1UWQgoqwUTnBClbO9yScY/w3Aj5OO/46IKDVDHwByau7cub9o/Df4FSC/AfhxZH43atQoNDSUWgZAns2fP79Tp06Q3/IC8huAH8disTQ0NJjMSme0BUCOcLncR48ede3alVoGtRvkNwAAACB/oP8aAAAAIH8gvwEAAAD5A/kNAAAAyB/IbwAAAED+QP81gGeGv3rzLV+vcftWVupUGQAA1AIiNuuAb16mqur0Thr6ldQ3q7NNnQT17/qOwBMOT+3Vq0+vkfMvs6gyAACoFXAu9/HbbP+QwipuLFadbeokecpvUe7Tv7s2s2poWZGGrQbuL32vGlA9BIGL22AIBMehKQYAAOSFPOU3N+HVg5dfomNiKxITGxadLaS2BAAAAOo2ebr+zQ5a59pqRRCP7j7rxAIv7dK3dkWVjR3dHI3gekBNEaLY9V0clz/Lt+l1+MPtSWpUMQAA/GSEUBgaXfAmmZ/FI2gKdAsjFXdrJU3JzUBLiISfv+YHpAl4DGbLxmouSO6gnSlsA7190wxt6dQmVW/DS8878LFQz0anrybvejA7l8Zobq/uqkeXpkNhXuHTcFZEHo4o0O0sVDuZKyhKyovxWNznX1khOSKchpkYKLvZqBiXml8RT09hP4kqTOQQikoM2wYqbuYKStSq300e85sxbE/kmZlmENU/BeQ3AODXI5IjMxZdS4/OLZU4qgaa80eaeOlQX+d5CVkLLqWGZFHXsTE6w9lVJfplLl8mv7+7TUFYUs8z2SaO2sLw7MRC8TaGjqbeQ7TUcaGfX+JavwJOSUstqmet+89A/bbq0gPAwz4kzb2Vmy+QLEkwVZUHDjKfYcMgtyCEvDPX4g595olKXgSqbanz71CDtmp/IJHqZn7zc+OjkkWG1pZaTCQz5PrhY/ejCpRtXAdPGuNa9DkRK0h4ffu6z7vQuCw2rqhpZOvUvk//7rbaxed4JWR3iHPjH5/xvvs2msMwbt5l8Ih+jhpF+8yLenz61O3AuAJloyYeQ8f2dJR9topxs+Ni0lATG3N1OkLwUl/dOH/HPySlgG5o06rP8CGuFirUdiX4WbFRaXwtS2vDMnfcI1dlxkam87Ub2hrKnlHmRj29csXnY0QKF1EzatjEreeAbo76xae8ZfJbhR335PK5ewEROUIVS0f3wSP72GuVOT0GAICaEeblTtyT8I1Ld+poMLKxsj6DSE0tOO2bEZSBGzubnxmoQVZhhaz8OfviPuZjls31J7RWNSEET9+ln/1YSIalqhGVzdXZRprfAgLRt9Of6a6uw+Hmaap3NkDfPomZ78thaqr26qzb1ZyBFnAfvkm//oWnaqq3faJhUyb5BZo1fG9yOkO5t6e+lxlDQSB8HZh25DWHoam9aY5JKyYR7h8z/i5b01JnQmdNBw2Mk8u56Jv6NF7UoI2Fdx81Beq1/kZkfssL1ue1zRRQ8nxo2J54EVVWAVyUsKmLJooy+m8Ojbq3yFGDih9F9X53WTi1DS/2whIPE8XSbfAIqqDVdNq+gHzpRkVkd5gWeGRQY42Sh6FMhz67Qtk4Lsp+9t/QhsoliUpTNBu9+z2H2kfFivasMOpgUnLA3r+aaMomMkPNfvbJEB61LYUVvN5RAUUxvYU32VRREVbgmqZMFKUZ/X2XWkUe1cP1PY3Fb1oJjKYzen948RuIC2PWdhQPG7Pudejr8229bNVltkbVTD0OvM6hNgUAgB+Bf3sR1fafoAGXcwuoEjFWdLL7sqCu/6WEC8glPOhJJLlNv/PZGcVfTyLBtUtf2/xTo22I/NBEt6VB7VdHX88rCQpBXvaI1UFua6MvlzySfCz/9OnQtku/zH/HJZdyAuNc/wkafDO/5FtXxDt6NmLwkYTbmeSjRGdPf2m7NGxzhJBaSxD8rKzJ/0VMuJ6VILPX3+a79UM5RAgFQnGX6uyII+NH7/zCNeoyYtr08f1aNrOU1iQJPOXMtB6jNvskkRVS4xb9x0yfO3/W2P5tTZQRXs6Xg7N6Td0TLNN8UrLD9NDDw3tOv/qN1rLX+JkzR3ey0cAIfvDtJQu3PHu0YVDfuRdTVZv9NXHW1JHu5iqYiJtwdvHYva851E4qRO0Zj3r6bw+vOVdDCxu49Js0c+bYPs46DFRQ8HX/tKG7/AuojaWEQiFBnnUJBIKyQyXIMnGzEMEXUkePJ1ybP2bF3RSBhuvQ5YfOXb164ejGRSNcTPjRXxPLd/VLCd7Tp/ffdyOJxp2HTZs9bVAHSyWUKEh8tHzc8oACuWmkAQDUPqiNq8XNBTbbPdVVqRIxhhqDXMQFOJf8gsEFfhGFCMpwcVbXLc4ljN69jUZJy3R1timipKvspFpSmhVZEMNFtG00PTQRvhCn/uG07s3IjfCIb+IvaoYanYkiKUFpmwPyQ/Mlw5kw5oTh1hcnmvaStKUaqNHJ796nj1PPfuWk88XrGdrah2ZZH+2nbVruAH4HKsflQXXr31SFEqUz6DQFm8XXy5wYieIujzUkgxxlOA7YG5pP1chJmYH7upuSvz5EUbv7uRjJiZxEcQ2VpKDVau3dBOnZlzDn+XRHVXJ7mrKqEkZr6LbsZYr0UaLEB7OtmeTvk+Yy6XahpKhCsnumq9hMO/SRRa0RhJ4fY84g943a9tiXIvMCWIGrm5DHiGrOuSJ7IitW8Ha5PVn/xnQW3JDWvzP29NEjN7XtsV92D6LClMQ0PrVQ+hiYms7LrkRKzz3JuvutOc3JQ0Ax7RkXMiVlAADw4/gs7ssv2cf8UlddjRt3MLzTiiCy3tx5W1Ign8AFBfM2B7n+G3kup9QXNs7NGbWCqltXZxuStP7dwztLpokSf/PwG1lxJ5+uwn/d9qWKtxJxT5wOozZbGtx9V9T8O2m3Y3nF3+G8jOwxG6iHuK4IHXA0bsOz7I85JdXx3+yPnDP8n0Rvzs4bM6q00ZMO+mVT6ymEUEj3WHRydb9SJ0aEKPbUvhtpIkTDfMSOo9MbqZW0Fus4TT2w6S9tDOHmPDl/9mv5mQDoKg7LLt5a2sNU2iJP02w3Z2pHRRQRcTi6Losv3FrbzlB67Rwz7jp3TFty16KkT+/iS9XlK4YxzScduLd3cvOiy910+8EbF3jqowgR+/za0+QfGdhOCNKSUsjzWkzPypZ8UcUwRUMTfQa1IIOu0vSf83fX/GUl7WuJYloei2d0UKcReH7wmy/VeBEAAFAxQsi7fDu62+ZvC88mHnmY/vBjfiIbs2ukUtKJh6y1iL/nUCat5DtZDMOUirskVWebIhhNdng0wSWjHUE0TNRcm2u2K/evpY3k4jWmMHa49e6B+u3sFJUYRF4a+5V/2vpD3wYfT/vIEbdBMnW1js60mttF286YgYqEyVF5tx4kztj+bYYfq3Qz6W8il/kdHXD1TBmnvW/4RpVJOR2bccsXtS0zNoCf+vjRuwICoTsNGOumVfpDgGDmfYa4k9lGCENfPMsuF+CWnWfN6WYgG4WGzRyM6WQVVa3fgqUumiV7Q2nGTez1yC05mWnZMl0VK2PR+e+1I6xlfxkoZtCrVysFFBEUhn4O4lGlNYEyDEyNlchziKAb+26Ec6nSyll2nj3f01D2GJh6Ts3MyfdPlJ2a8iNnEAAAIIYHPEnY+ZqNqan27222bbrNrRVNfOZb/9dFraQ5HaPrKJEBLcoofbWO4ItKeoNXZ5uKoVpKGPkFrW6qs3GQ2bZy/zZ006Q2xOguzgbbxtj4/tvoxASzse01dJSIjMiMPa8kHdnJeo6a8pAuJidn2vsusd06xMirqSINF37yTTmXXL7G98vJY37TG3ebuqCMhUsmDGhUpp+0tm3zprKdsSQKQ4MjeSIEVW7i4lS+EoopN3OwUSI/D3nxkRXWm8vsjqauJrnCgqJlnwdVVVMm/4ML+PzvxzdCYzDEze2lYDr2dkZ0lBBlJcbm/NBHQ7vf+AGmDLQg4cZoV5dRy46/iWdTaypR7kWoqYovKxECrvj6FAAA/ABCyL0fIr5u3aWP+eK2mu1MFXXFFyqR/DSedDQZ+T8oTcHZlEHgvI8RPNmvu6wYdlJR7aE621QCtTRTJp8zMyI/iCf7ZUYkfkmdcT5h4zvyu5EI/5K27HL80WhJHZ9Ot7fSnNLD7FB3NRQhsjJ4CM676Zu84HLae8keFFQV2jvqrhhqOdoKw0X8uEzI72rBHPss3bKttK1rBjWX7RhRKUFmZg4Z3zQNHb1SY/KlUJqero74sjOflc+uzsi6crldQrqmGvuoDF1bSzIokWAX5EtLaggz6bPl/K7h1moYL/vLmQ0TXG2s3IatvBNS7b2hNEzyAsVXWqQlAABQUyjGpImnaM7KFxanHCcrb61ProBACBEh6U6LdWmlqU4jvr5IPhpLbcbNzlv7ULxNkepsUzEVS83OBmhhds6227nFdTNWWs7yOxmBXwoyUXH7O72A4xeYd/VxZlBh0e5w4Zs4cVxr6yqQLyMlNvfVp8zDL9nFt4oQsDiBmTj5+sxLOtT9PvKY3/8fKooIvOLzNZF0FnCMRq9gGPhvRlATktNoP3wsau2mn/kU8mT3vL6NdJgEP+3lhTUDXNuvuJ30B84VAQD1Ellv7ttchYaI3tyOHnU2ceWtxLmnInvujv9CKGgoIiKeKE/yVadirreikzJeyDl5LGLw8dgZp6N674n/yMKoidMkqrNNhVC68rz+hg1UibiPiWO2R044Ezf5eESvfUlf81HDpobznMXx3NDZoIcJlhubPmtHxJjTcbPPxQ7eGbEtkK+sqzWujSKCMYd109Vl4MG+sX/tjp52Ln7Gqaheu+ICc1HzFvqDSl17/E3qXX7TNDTFrSGi3KxMSff/0ghhamqG+ExOWc9Il1553fq34CelpAsJBGVo6cnMA4Oikp9xUbWvSKuYdZi948aXuLCrm4baqGGC/OA9c1a9YknPDQAA4FdDHdqZb+mp3UALifua4/shPzwXc3U3OzrTYoApJuRy3sVJKxS0dl0sjgzTb26KZcazPkfx1c20Z402tC3VVFqdbSqmbqZ7cprlqNZq6hj/69f80DiBir5qj14NDg2mRn+hCspLxjWc3l5dT1EU9S3/Qxg7B2G6tDPaNtm4o2SAmoa53skJpt0bKyKswqDQvKAYvoK+er9+Fvv6anx/rq5fQdw0KidqOH4Msel1uMxMLCTOt20txTuhu815UjKIqggv7bSXNo08rWk58aZ4PL9EFTtkfdngSO4N1Zx9ucxoLp7PombkjtRNxj3jlAxRK6N4z5Zdd6eVfUmCgDWuZL0bY9hvfl0yBo0TLj1+5qgDyWUekXZ/hikdkRk/Vp4o7FAfdYzcp82Gl9Q+q3h1uDByZTvxKtt+xyvbIwAAgD/ij5wz/EmKFp072CkjiPDztWNPMsrUYYWfTx73yxGhdCP3vh1/52R4cU83Lj4ULNsggBe+P3vpM3l86sZurg4lx8I0NDUUz/ImDHnzSnZqGF7Stblzjid95w5smFEjW10aSp4cVKtbHQAAgNqq3uU3ynAcO1ncFpKfeGHOiA0BqcWJx/pwevqoNc8KCdS8zfQJ3TWo4t8CF6WenuM1brNfhuRwCGHilb9nHQ1hEyij1YhxrVVKWvIxldZtndRRBA+6sn73k3Rpq1NmsPc4j3EXIoV0mWGR/OSLk/tMPfkyqbgfPYFnPrngEy8kmKqNm9hXo70JAABAbVXv8htBaE0mbVvpZUZDROGPVnaws2rt3qtPr64tbRq0GXMknE2om/Vaf2iBbQUTnPxCqpZO9qqp5/7p2tjGpatnt5Y2TYfvfU+eSRg0nbZyYRvZY0Fp5iNn9DegIUJW4ArPJk4dvDw6Nm3kMu5iuOKANWt66ZX0dBMVxH/0OTy+o41dC8+Rk2bMnDbay8VxyIEgIaLYftLCHkZlRtsBAACQJ/KU35iqrq4ak8bQ1NZWrOq4UUUtLVUGjammW/bGslIYs9G8iw8OzXI3VkQE+fFvn969fdf3Q2S2CFVz6rXkst+lEY1Lt51XvkNMUUNLhcFQ0NRUL7tGXUtbiUZT1tJREU8b8B2GTabduLujr61KVux734ePP8bmiRAFu84LTt/e5lpukhmz/tu81/QyUUBxQWbwiwePnoey1ZznH3/svcDVQFORrqCpLp7UFVG0Hjx/WkdDJjfm48OzR/fvO3j64cdkXMGs76KzJzd0Fg9Ol6ri7UKVtHVUGBhTTafUjVUAAAD8cfJ0/9CfrjA95PnTVyExqSwhU8vIyqVjl1bWWr8zqMrcu1OVl/Lqzp2AiExU1ahx2+7uLYyqaOPOi3113ycgOl2obdG8W293q6LbrJVRmB764umrsPh0llBRz7xR+67ujQ1+55V9AAAAv0S9zu8/rkx+q1HFAAAAwHdAsygAAAAgfyC/AQAA/CZEIWvF/q9Tn7CLh8sSQsH7oMzt95JX3009/KFAMl1pVQgR9+LDpGW3M6u4KyIh4l3ySVp6M/OzzDYET1Q85pafkTV6a8TaLwK5nokS8hsAAMDvIfJ9lPw8V6lvSyVp5x5uVu68/d9mXUi58jLrgX/Giauxo7dFbQvlVxWrhMA/MPvZB1YiNcF0RQjBa3Kb9wXx0ts/4qLAD8lD9yQ+KboTE1NPc6gV7nsnxbdAjhMc8vtPQmk6bfoOGTxwaL++Lcrc5xQAAOoYTmLWjvd8qzZ6HtJbMwkLt59PfJOKmDsabptjd3OxzSpPDSav8OaVxPPU3BY/CMWYHu30B3TSsJVMiUHghWd8sxLzZHt70bp11NXn5R17wvrObRlrMcjvP0ut67zDFy+f3zLR+fcOOAcAgN8LF1x+msViqPZ3UZSOlsn+mvUwhVA31904UK+dAVNfU7F7B9MVbRSEXPaDwMJq3+GhIhjTq73Bgi7adpV/sTJ0NEc1ZSQGZlz7/84V/iDIbwAAAL8cLzXnYrhQx06zk+ReIGStOB9lOFgrt2qhYVEy+hVrpC++wUNBnuA7k0GLEenJ+d5+aTt8M66EF+bKBj7Ou/0sdePDrFAB+by5231yvhUiBMF76Ju65UluLJXXtM7NNRSEnLtvSi7GyxfIbwAAAL8a/jYwN5eg2durqFIlqGUTg33jrNa6yMzHhQv9ogoJBNXTV/hOkySBBzyJHbg/7qBP+mXf1O3ekYP2JtxMozKcwAVPAjLuvMyPEhHcTNaNl7mZPLKQ/8E/897bgkTpRXHx3UjVmqkhKV9yA77Xaa52gvwGAADwaxEi7uNvPIym1FKmri0Dz8gsfB2SteZs1K4ggaqh9njZUK+ISMD2ecm1amW0ZYb1kYmmfewY7LTcvZfSP/OoDYppNDZ5utKyrSaC0VSX/Nv48SLT9gxqUkuUrtTGjCZgsV5QNzCVM5DfAAAAfi1RQeGXbERBU8FGqYLQIYSFW09Ezj+bfD+MT1dVHTNAv63MTZsqgVq1M9vXR9fNRKlpQ60lIywGmGPs1JwzIeXawjGUTkMku0MxDJO9yRO5rqmRAvn0kfG8/+ty+x8C+Q0AAODX4mXxsnGEqck0rbhZHLW11+3TQae1NVPIYh04ErUqiFd1jRijK/dyVSm+jwNKVxzhoooSom/hNepOjproMMk8z87kVT6YvPaC/AYAAPBrCVlCPoEwlGgld06SgdKVJ/Y2+sfTeNd4mwO91WhC/pPbqQ+rHJmtoK5grVIqvzT0FciCwpya9UVjKNMYKMJni1hy2IIO+Q0AAODXEgnFY68xGvq9ZnGsqYthd0NEwGH7F3UTrxBKw8rU5Gk0jCbuuVaznmgoDSVTkBDh8tgFHfIbAADAr0VjYmTYSFO8CJ6exn4UnPepdD0bpTEttTAyhws4VeW3kCvMR0pFtaBAwCGr+Cp0arl6cAEuEjcAYMpyGIaQ3wAAAH4thjpDEUMEbGFOSSgTTx7HrTifcDio1GyphIgfQ26E0nQquSeylIBdGJgi+zj8/Tc2n0D0TStuoa+s3s9lkScViJI6Q4kqkCf1Lr8JPOP93UsXLj8Mz5bH/oYAACB/FHUU9GkIL4cXX/K9i7k1VqWjRPibrLfs4po0EfUp3ScVUdRQc7eoKp4InHf3bvp76qo1kRietuU9j66o4tW84qmoGTSEIIQ5rDKt60R0Jq9aw81rpXqX3/zEy/MGDR02uO/Gq9lUEQAAgF8JU1ZuboDw87mhJRVw1NhBf4gljZOZ/e/huK3+ObeDsndfj5l4I0+IMTv10HdVrOpaOUNZgZabOX9X5NjTcZOOfBt2OjMXZ7TvaTxQt4JQQzGGqTpG4IXHDkUMPJzymqynS+HCz4l8BGM2sWDIYxbWu/wmT7iK/ivb9gIAAOCXwZie9koEzv0YXXLLTpSuOG24xTgnJX5WwbW7iRsuJF14x6Zpqg0faflvU2bV4URXUl06zszdDImLLAhLwvUstaaMa7i+BTWzelkYc5iHQVNDurCQnxLPDs2hUgDncQKScCVt1U5GVbXV11ooIdufoB7gxe/raj/rZSFzzKG4k5MNqNKfhxCGb+7Vdd0Lttu8m7fWuZVvkyn8urdn56Xv+dYrbr1a2A7uOgYAqBcE2VnD/0tmmxudGKtrUDqcWXmFHxJ4WSJUT1uxhYnCb+tKlhGUMOBinm2XhofdleUxwOth/fvXIkT5KYnZbE5eenJWhRV8QV5KYhaLlZuUng0NAACA+oKhrTmyKSM/NvdeRtmvPlUNpY5NNQc4ariZ/b7wRnDBzQ8FqLJq/5aV1NprPchvAAAAvwHNqwNZ8y58EMAupEr+pMLknGvReMNWet0lNyOXR/U9v/Ninh1eO2/CyKEjxs1af+hRXEVT7+GctJAP70NiZQY+FMG56WGB1CoCz4v69ObNu7AMycR/nKyodwESbz4l5IlLhHmxgW8CPnxN44uvwQvTIt9L17/7FFt6ACQr3O/M5qUzxw4fPGjIyMlzVx688ia93KT8EryU8MDA0GSuZIGV4H907bzxw4eOnrhwx9mAjGrcfg8AAH4bpr724vZKqZ8zbmSW/zb9vXDBtWdZPC2tGW7K8tjznELUM9y4ve2VUARRGH0w/PH2QVbUnWilUH374Re/cKhNKYLXq13pCKKsO9SHg1NlFOHbde2pVSyc9WmNg3gm3fIYPVd/Ivfjv7JNhTML0BSc9wTxpXssiLw6o6NZ0d1xiqCYrm2fPX6pIulGRbiJB9yUUJpCq4Oh2QFHxjVSl2kEQulWbstepQupTQEAoBbA+YUHLkQvfsniUQV/Bi8je96RmMMxAmpZPtXb+rfo5f4BAxZdiSMsPEbMWLRw+oA2ZkyUSP96ftaQJQF5pfr0iUTimiwhEuJlTxkJkUhcJF6FIHRtm2bN7O3sLLXFt59HFTTNbO0k7JvaWmkjCKZr4+Bgb2drqSdOeZSuU7y+iYOZtvgXwUu4PKH7yP3PEgSIio3rgCnzl/yzeMbgzrYqKJH57dbC/gP2vyvdPiCS3saWG3BoWN+pJ6Mw615jZy+aP6GLrSaGCKNebJq79HaeZEMAAKgNUIbi1CGWm9upMKmCP4Opq7VjosUki5pN1lbrUDlebxTVv0moYdNx179StW1cmHx2YlO6OFmVB+8Il6npCl6uaEX+kpW0Bj5glal/U1Vz2VUi7tvZTZTJtHYed50rLSotL2CpDQNFMf1Ft9hUkQQuSjs+THxrXIxpPunQZ5l17A/HhpMnF+SRWXTcHC1To5Z5LZiZyxyfWOoJhfkBC1w0yRWKWj2vpkAVHAAA6qB6W/9GtW1GnXhwpJ8dNWseSjMauG6ppw4dIQoDbtxI+u2Ts3Ejzx26GS9CaM4jdm6d3ExmDkBl5/F7Nw6zpCFE/OvT1wPLT7OPGjnNOHN3e7cGCtJlmlrrOXO6q6EIr+Dzx8/yOC0/AACA76i3+c3wmrvBw6TUqAGmgWcPN20UIbLCPoVzf/OweDzxsc+nQhylm/ce7aVBFRbT8hrSXY+G4IJvb14kluv4wew2bVkHcrUM7WYOlkyUEGVlZsjjbW0BAAB8R/2tf9Pp9HIvXsXO1pgs5BUkJKT/5gq4ICQ4QkggCqrNmjtVMKmLiqOjDRNDCFFCVFT5fuXSNnRZdDV1FbKUwLmFFfdcBwAAINfqbX5XiKajI75sTBBsVsFvrn+LMjPFg8wU1HW1KpqTja6ho6VA/rIITkF+tY4MwzBpqsM0sQAAUBdBfpeCU7PJorTfPh8PIXlqQtwNTlpQBi49NjpDzjtMAgAA+Bkgv2WJ0lIyyZCk0XR0ZW5ig6LinwmR8Fc2qWOammpkhZmXn54tnY2lNEF6aiaXrEnTdIyMIcABAADU2/wmuIWFZVqWCVHyh8AkslDVxK6hZvE7gyopi/t1CwV5ubllHsHLzCw9VFxCeqf4yurRlaxn2Nk1IJ+SzwkK/FhBgGcFBIQJCBTTaOJs99ubBgAAANQ69Ta/+bc3TT0dXGoWXlbw6ctv8gkEs2jn3lg8B4sUzcjMWBFFRLwv7wJkZ0PBo68vmHs4rEylHMUUmdIL1Tk5FY7coikpkPsmCHZujmxO0xp27mDDRAlh4o2j18rMLUgIwk8efZSPIyoG3Tw7qVGlAAAA6rF6m98IJ9VnllffXb6J0vFVvFTfZZN3BXNxGtNqwLjuMsOvEY3Wro7KGIFnXly/+nmatPd3wYdT03qOPhKD02jFQS+BMkwkcU8kvb3/LFUa7kKhTJdxBWMzQzLgCe7b+/ekOU0IxS3zKs3HjOukhyF40KV5k1Y/pJ6HPE1gh5+YNWLD00wCVeo4ZV5nrdLPBwAAoF6qp/mNMZsMGNYSSXk036Nxo5bu3T1cGzXy2vsuG0eZrcdsmdpeNr4RRYvhMwZb0VAiJXCPZxOHTl6e7Zvauo49HKvYfsXaEfplm7M1Onu0VEIRVsrVkS6tPXt5uFgZDdjwmVpJVrS1OnVtTYYwmdNTWrf26OnR1srI9UCwAKU1nLZzTRcjBoJn3Fjbw96yedeefXp2a2tr3mzioQ8chN7Ia8P2v13keKp9AAAAPxFRz/BSvHvoKKjo9LyYkPp4+2Ar1ZIzGIxh6Dn7fNEkpKUIc16v7mVV0qaO0k2dx53/lJf76t9GynRti0nPZW5tImJ/WOfZQDwVqxSqNGRXJLVOIvv9LnfTkp0xVDuejKam0c8NOT/N3YKsv8tA6aoNByy+GF0o3aQEL/V0T10FGsNg7qVsqqgIL+1sb31ylf6ccqsAAADUASj5/1RM1EuFqR/v3XkRmcFXNbB27e7Z3ISaTrUi7KhXDx69Ds8SqVs5uvfo1riKm8YSeG7I03tPP8bkC5XNmnbu5eWkXbrXuCD325O7jz/HZhPKxk7uvbo6ylbj+SkhL/38P8emFeAMdWNrpw7u7a3KPB4AAED9Vt/zGwAAAJBH9bf/GgAAACC/IL8BAAAA+QP5DQAAAMgfyG8AAABA/kB+AwAAAPIH8hsAAACQP5DfAAAAgPyB/AYAAADkD+Q3AAAAIH8gvwEAAAD5A/kNAAAAyB/IbwAAAED+QH4DAAAA8gfyGwAAAJA/kN8AAACA/IH8BgAAAOQP5DcAAAAgfyC/AQAAAPkD+Q0AAADIH8hvAAAAQP5AfgMAAADyBkH+B5cAdI4DegqyAAAAAElFTkSuQmCC;" vertex="1" parent="1">
                    <mxGeometry x="40" y="40" width="520" height="207" as="geometry"/>
                </mxCell>
                <mxCell id="5" style="edgeStyle=none;html=1;exitX=0;exitY=0.79;exitDx=0;exitDy=0;exitPerimeter=0;endArrow=none;endFill=0;strokeWidth=2;" edge="1" parent="1" source="3">
                    <mxGeometry relative="1" as="geometry">
                        <mxPoint x="190" y="450.8571428571428" as="targetPoint"/>
                    </mxGeometry>
                </mxCell>
                <mxCell id="6" style="edgeStyle=none;html=1;exitX=1;exitY=0.36;exitDx=0;exitDy=0;exitPerimeter=0;endArrow=none;endFill=0;strokeWidth=2;" edge="1" parent="1" source="3">
                    <mxGeometry relative="1" as="geometry">
                        <mxPoint x="360" y="412.7619047619047" as="targetPoint"/>
                    </mxGeometry>
                </mxCell>
                <mxCell id="8" style="edgeStyle=none;html=1;exitX=0.5;exitY=0;exitDx=0;exitDy=0;exitPerimeter=0;endArrow=none;endFill=0;strokeWidth=2;" edge="1" parent="1" source="3">
                    <mxGeometry relative="1" as="geometry">
                        <mxPoint x="269.8571428571428" y="360" as="targetPoint"/>
                    </mxGeometry>
                </mxCell>
                <mxCell id="34" style="edgeStyle=none;html=1;exitX=0;exitY=0.36;exitDx=0;exitDy=0;exitPerimeter=0;endArrow=none;endFill=0;strokeWidth=2;" edge="1" parent="1" source="3">
                    <mxGeometry relative="1" as="geometry">
                        <mxPoint x="80" y="412" as="targetPoint"/>
                    </mxGeometry>
                </mxCell>
                <mxCell id="3" value="" style="verticalLabelPosition=bottom;shadow=0;dashed=0;align=center;html=1;verticalAlign=top;shape=mxgraph.electrical.logic_gates.d_type_flip-flop_with_clear_2;strokeWidth=2;" vertex="1" parent="1">
                    <mxGeometry x="220" y="380" width="100" height="90" as="geometry"/>
                </mxCell>
                <mxCell id="16" style="edgeStyle=none;html=1;exitX=0;exitY=0.79;exitDx=0;exitDy=0;exitPerimeter=0;endArrow=none;endFill=0;strokeWidth=2;" edge="1" parent="1" source="20">
                    <mxGeometry relative="1" as="geometry">
                        <mxPoint x="190" y="585.8571428571428" as="targetPoint"/>
                    </mxGeometry>
                </mxCell>
                <mxCell id="17" style="edgeStyle=none;html=1;exitX=1;exitY=0.36;exitDx=0;exitDy=0;exitPerimeter=0;endArrow=none;endFill=0;strokeWidth=2;" edge="1" parent="1" source="20">
                    <mxGeometry relative="1" as="geometry">
                        <mxPoint x="410" y="548" as="targetPoint"/>
                    </mxGeometry>
                </mxCell>
                <mxCell id="21" style="edgeStyle=none;html=1;exitX=0.5;exitY=0;exitDx=0;exitDy=0;exitPerimeter=0;endArrow=none;endFill=0;strokeWidth=2;" edge="1" parent="1" source="20">
                    <mxGeometry relative="1" as="geometry">
                        <mxPoint x="269.8571428571428" y="500" as="targetPoint"/>
                    </mxGeometry>
                </mxCell>
                <mxCell id="35" style="edgeStyle=none;html=1;exitX=0;exitY=0.36;exitDx=0;exitDy=0;exitPerimeter=0;endArrow=none;endFill=0;strokeWidth=2;" edge="1" parent="1" source="20">
                    <mxGeometry relative="1" as="geometry">
                        <mxPoint x="50" y="547" as="targetPoint"/>
                    </mxGeometry>
                </mxCell>
                <mxCell id="20" value="" style="verticalLabelPosition=bottom;shadow=0;dashed=0;align=center;html=1;verticalAlign=top;shape=mxgraph.electrical.logic_gates.d_type_flip-flop_with_clear_2;strokeWidth=2;" vertex="1" parent="1">
                    <mxGeometry x="220" y="515" width="100" height="90" as="geometry"/>
                </mxCell>
                <mxCell id="29" style="edgeStyle=none;html=1;exitX=0;exitY=0.79;exitDx=0;exitDy=0;exitPerimeter=0;endArrow=none;endFill=0;strokeWidth=2;" edge="1" parent="1" source="33">
                    <mxGeometry relative="1" as="geometry">
                        <mxPoint x="190" y="725.8571428571428" as="targetPoint"/>
                    </mxGeometry>
                </mxCell>
                <mxCell id="30" style="edgeStyle=none;html=1;exitX=1;exitY=0.36;exitDx=0;exitDy=0;exitPerimeter=0;endArrow=none;endFill=0;strokeWidth=2;" edge="1" parent="1" source="33">
                    <mxGeometry relative="1" as="geometry">
                        <mxPoint x="360" y="687.7619047619047" as="targetPoint"/>
                    </mxGeometry>
                </mxCell>
                <mxCell id="32" style="edgeStyle=none;html=1;exitX=0.5;exitY=0;exitDx=0;exitDy=0;exitPerimeter=0;endArrow=none;endFill=0;strokeWidth=2;" edge="1" parent="1" source="33">
                    <mxGeometry relative="1" as="geometry">
                        <mxPoint x="269.8571428571428" y="640" as="targetPoint"/>
                    </mxGeometry>
                </mxCell>
                <mxCell id="36" style="edgeStyle=none;html=1;exitX=0;exitY=0.36;exitDx=0;exitDy=0;exitPerimeter=0;endArrow=none;endFill=0;strokeWidth=2;" edge="1" parent="1" source="33">
                    <mxGeometry relative="1" as="geometry">
                        <mxPoint x="80" y="687.3548387096774" as="targetPoint"/>
                    </mxGeometry>
                </mxCell>
                <mxCell id="33" value="" style="verticalLabelPosition=bottom;shadow=0;dashed=0;align=center;html=1;verticalAlign=top;shape=mxgraph.electrical.logic_gates.d_type_flip-flop_with_clear_2;strokeWidth=2;" vertex="1" parent="1">
                    <mxGeometry x="220" y="655" width="100" height="90" as="geometry"/>
                </mxCell>
                <mxCell id="37" value="" style="endArrow=none;html=1;strokeWidth=2;" edge="1" parent="1">
                    <mxGeometry width="50" height="50" relative="1" as="geometry">
                        <mxPoint x="190" y="790" as="sourcePoint"/>
                        <mxPoint x="190" y="450" as="targetPoint"/>
                    </mxGeometry>
                </mxCell>
                <mxCell id="38" value="" style="endArrow=none;html=1;strokeWidth=2;" edge="1" parent="1">
                    <mxGeometry width="50" height="50" relative="1" as="geometry">
                        <mxPoint x="140" y="360" as="sourcePoint"/>
                        <mxPoint x="270" y="360" as="targetPoint"/>
                    </mxGeometry>
                </mxCell>
                <mxCell id="39" value="" style="endArrow=none;html=1;strokeWidth=2;" edge="1" parent="1">
                    <mxGeometry width="50" height="50" relative="1" as="geometry">
                        <mxPoint x="140" y="500" as="sourcePoint"/>
                        <mxPoint x="270" y="500" as="targetPoint"/>
                    </mxGeometry>
                </mxCell>
                <mxCell id="40" value="" style="endArrow=none;html=1;strokeWidth=2;" edge="1" parent="1">
                    <mxGeometry width="50" height="50" relative="1" as="geometry">
                        <mxPoint x="140" y="640" as="sourcePoint"/>
                        <mxPoint x="270" y="640" as="targetPoint"/>
                    </mxGeometry>
                </mxCell>
                <mxCell id="41" value="" style="endArrow=none;html=1;strokeWidth=2;" edge="1" parent="1">
                    <mxGeometry width="50" height="50" relative="1" as="geometry">
                        <mxPoint x="140" y="790" as="sourcePoint"/>
                        <mxPoint x="140" y="360" as="targetPoint"/>
                    </mxGeometry>
                </mxCell>
                <mxCell id="43" value="" style="endArrow=none;html=1;strokeWidth=2;" edge="1" parent="1">
                    <mxGeometry width="50" height="50" relative="1" as="geometry">
                        <mxPoint x="80" y="690" as="sourcePoint"/>
                        <mxPoint x="80" y="410" as="targetPoint"/>
                    </mxGeometry>
                </mxCell>
                <mxCell id="44" value="" style="endArrow=none;html=1;strokeWidth=2;" edge="1" parent="1">
                    <mxGeometry width="50" height="50" relative="1" as="geometry">
                        <mxPoint x="360" y="690" as="sourcePoint"/>
                        <mxPoint x="360" y="410" as="targetPoint"/>
                    </mxGeometry>
                </mxCell>
                <mxCell id="45" value="Next&lt;br&gt;Address" style="text;html=1;align=center;verticalAlign=middle;resizable=0;points=[];autosize=1;strokeWidth=2;" vertex="1" parent="1">
                    <mxGeometry x="10" y="530" width="70" height="40" as="geometry"/>
                </mxCell>
                <mxCell id="46" value="Memory&lt;br&gt;&amp;nbsp;Select" style="text;html=1;align=center;verticalAlign=middle;resizable=0;points=[];autosize=1;strokeWidth=2;" vertex="1" parent="1">
                    <mxGeometry x="390" y="530" width="70" height="40" as="geometry"/>
                </mxCell>
                <mxCell id="47" value="Clock" style="text;html=1;align=center;verticalAlign=middle;resizable=0;points=[];autosize=1;strokeWidth=2;" vertex="1" parent="1">
                    <mxGeometry x="165" y="785" width="50" height="30" as="geometry"/>
                </mxCell>
                <mxCell id="48" value="Reset" style="text;html=1;align=center;verticalAlign=middle;resizable=0;points=[];autosize=1;strokeWidth=2;" vertex="1" parent="1">
                    <mxGeometry x="105" y="775" width="50" height="30" as="geometry"/>
                </mxCell>
            </root>
        </mxGraphModel>
    </diagram>
</mxfile>